# Blender v3.2.0 OBJ File: ''
# www.blender.org
mtllib ATC.mtl
o Cube
v -1.000000 1.000000 1.000000
v -1.000000 -1.000000 1.000000
v -1.000000 1.000000 -1.000000
v -1.000000 -1.000000 -1.000000
v 1.000000 1.000000 1.000000
v 1.000000 -1.000000 1.000000
v 1.000000 1.000000 -1.000000
v 1.000000 -1.000000 -1.000000
v -1.000000 4.983665 -1.000000
v 1.000000 4.983665 -1.000000
v -1.000000 4.983665 1.000000
v 1.000000 4.983665 1.000000
v -2.040492 6.246754 -2.040492
v 2.040492 6.246754 -2.040492
v -2.040492 6.246754 2.040492
v 2.040492 6.246754 2.040492
v -2.040492 7.911085 -2.040492
v 2.040492 7.911085 -2.040492
v -2.040492 7.911085 2.040492
v 2.040492 7.911085 2.040492
v -1.172683 9.486911 -1.172683
v 1.172683 9.486911 -1.172683
v -1.172683 9.486911 1.172683
v 1.172683 9.486911 1.172683
vt 0.625000 0.750000
vt 0.625000 0.500000
vt 0.625000 0.500000
vt 0.625000 0.750000
vt 0.375000 0.750000
vt 0.625000 1.000000
vt 0.375000 1.000000
vt 0.375000 0.000000
vt 0.625000 0.000000
vt 0.625000 0.250000
vt 0.375000 0.250000
vt 0.125000 0.500000
vt 0.375000 0.500000
vt 0.125000 0.750000
vt 0.625000 0.250000
vt 0.625000 0.000000
vt 0.625000 0.000000
vt 0.625000 0.250000
vt 0.625000 1.000000
vt 0.625000 0.500000
vt 0.625000 0.250000
vt 0.625000 0.500000
vt 0.625000 0.750000
vt 0.625000 1.000000
vt 0.625000 0.250000
vt 0.625000 0.500000
vt 0.625000 0.750000
vt 0.625000 0.000000
vt 0.625000 1.000000
vt 0.875000 0.500000
vt 0.875000 0.750000
vt 0.625000 0.750000
vt 0.625000 0.000000
vt 0.625000 1.000000
vn -1.0000 0.0000 0.0000
vn 0.0000 0.0000 -1.0000
vn 1.0000 0.0000 0.0000
vn 0.0000 -1.0000 0.0000
vn 0.0000 0.0000 1.0000
vn 0.7718 -0.6358 0.0000
vn 0.0000 -0.6358 -0.7718
vn 0.0000 -0.6358 0.7718
vn -0.7718 -0.6358 0.0000
vn 0.0000 0.4824 0.8760
vn 0.0000 1.0000 0.0000
vn -0.8760 0.4824 0.0000
vn 0.8760 0.4824 0.0000
vn 0.0000 0.4824 -0.8760
usemtl Material
s off
f 3/1/1 1/2/1 11/3/1 9/4/1
f 4/5/2 3/1/2 7/6/2 8/7/2
f 8/8/3 7/9/3 5/10/3 6/11/3
f 6/12/4 2/13/4 4/5/4 8/14/4
f 2/13/1 1/2/1 3/1/1 4/5/1
f 6/11/5 5/10/5 1/2/5 2/13/5
f 12/15/6 10/16/6 14/17/6 16/18/6
f 1/2/5 5/10/5 12/15/5 11/3/5
f 7/6/2 3/1/2 9/4/2 10/19/2
f 5/10/3 7/9/3 10/16/3 12/15/3
f 15/20/5 16/18/5 20/21/5 19/22/5
f 10/19/7 9/4/7 13/23/7 14/24/7
f 11/3/8 12/15/8 16/18/8 15/20/8
f 9/4/9 11/3/9 15/20/9 13/23/9
f 19/22/10 20/21/10 24/25/10 23/26/10
f 13/23/1 15/20/1 19/22/1 17/27/1
f 16/18/3 14/17/3 18/28/3 20/21/3
f 14/24/2 13/23/2 17/27/2 18/29/2
f 23/26/11 24/30/11 22/31/11 21/32/11
f 17/27/12 19/22/12 23/26/12 21/32/12
f 20/21/13 18/28/13 22/33/13 24/25/13
f 18/29/14 17/27/14 21/32/14 22/34/14
